# Blender 5.0.1
# www.blender.org
o ad-placeholder-1-4.001
v -9.952073 0.314503 -0.093495
v -9.952073 64.545441 -0.200781
v -9.952073 0.313427 -0.735780
v -9.952073 64.544373 -0.843066
v 6.352876 0.314503 -0.093495
v 6.352876 64.545441 -0.200781
v 6.352876 0.313427 -0.735780
v 6.352876 64.544373 -0.843066
vn -1.0000 -0.0000 -0.0000
vn -0.0000 -0.0017 -1.0000
vn 1.0000 -0.0000 -0.0000
vn -0.0000 0.0017 1.0000
vn -0.0000 -1.0000 0.0017
vn -0.0000 1.0000 -0.0017
vt 0.375000 0.000000
vt 0.625000 0.000000
vt 0.625000 0.250000
vt 0.375000 0.250000
vt 0.625000 0.500000
vt 0.375000 0.500000
vt 0.625000 0.750000
vt 0.375000 0.750000
vt 0.625000 1.000000
vt 0.375000 1.000000
vt 0.125000 0.500000
vt 0.125000 0.750000
vt 0.875000 0.500000
vt 0.875000 0.750000
s 0
f 1/1/1 2/2/1 4/3/1 3/4/1
f 3/4/2 4/3/2 8/5/2 7/6/2
f 7/6/3 8/5/3 6/7/3 5/8/3
f 5/8/4 6/7/4 2/9/4 1/10/4
f 3/11/5 7/6/5 5/8/5 1/12/5
f 8/5/6 4/13/6 2/14/6 6/7/6
