{
  "accessors": [
    {
      "name": "pattyWagon02_geo1_Mesh.311-Mesh_0_positions",
      "componentType": 5126,
      "count": 3006,
      "min": [
        -1.8609399795532227,
        -0.20027999579906464,
        -3.6715590953826904
      ],
      "max": [
        1.833245038986206,
        2.9958560466766357,
        3.7596991062164307
      ],
      "type": "VEC3",
      "bufferView": 0,
      "byteOffset": 0
    },
    {
      "name": "pattyWagon02_geo1_Mesh.311-Mesh_0_normals",
      "componentType": 5126,
      "count": 3006,
      "min": [
        -1,
        -1,
        -1
      ],
      "max": [
        1,
        1,
        1
      ],
      "type": "VEC3",
      "bufferView": 1,
      "byteOffset": 0
    },
    {
      "name": "pattyWagon02_geo1_Mesh.311-Mesh_0_texcoords",
      "componentType": 5126,
      "count": 3006,
      "min": [
        0.06193900108337402,
        0.06584499776363373
      ],
      "max": [
        0.8344050049781799,
        0.9478269815444946
      ],
      "type": "VEC2",
      "bufferView": 2,
      "byteOffset": 0
    },
    {
      "name": "pattyWagon02_geo1_Mesh.311-Mesh_0_indices",
      "componentType": 5123,
      "count": 7152,
      "min": [
        0
      ],
      "max": [
        3005
      ],
      "type": "SCALAR",
      "bufferView": 3,
      "byteOffset": 0
    }
  ],
  "asset": {
    "generator": "obj2gltf",
    "version": "2.0"
  },
  "buffers": [
    {
      "name": "car_07",
      "byteLength": 110496,
      "uri": "data:application/octet-stream;base64,"
    }
  ],
  "bufferViews": [
    {
      "name": "bufferView_0",
      "buffer": 0,
      "byteLength": 36072,
      "byteOffset": 0,
      "byteStride": 12,
      "target": 34962
    },
    {
      "name": "bufferView_1",
      "buffer": 0,
      "byteLength": 36072,
      "byteOffset": 36072,
      "byteStride": 12,
      "target": 34962
    },
    {
      "name": "bufferView_2",
      "buffer": 0,
      "byteLength": 24048,
      "byteOffset": 72144,
      "byteStride": 8,
      "target": 34962
    },
    {
      "name": "bufferView_3",
      "buffer": 0,
      "byteLength": 14304,
      "byteOffset": 96192,
      "target": 34963
    }
  ],
  "materials": [
    {
      "name": "default",
      "pbrMetallicRoughness": {
        "baseColorFactor": [
          0.5,
          0.5,
          0.5,
          1
        ],
        "metallicFactor": 0,
        "roughnessFactor": 1
      },
      "emissiveFactor": [
        0,
        0,
        0
      ],
      "alphaMode": "OPAQUE",
      "doubleSided": false
    }
  ],
  "meshes": [
    {
      "name": "pattyWagon02_geo1_Mesh.311-Mesh",
      "primitives": [
        {
          "attributes": {
            "POSITION": 0,
            "NORMAL": 1,
            "TEXCOORD_0": 2
          },
          "indices": 3,
          "material": 0,
          "mode": 4
        }
      ]
    }
  ],
  "nodes": [
    {
      "name": "pattyWagon02_geo1_Mesh.311",
      "mesh": 0
    }
  ],
  "scene": 0,
  "scenes": [
    {
      "nodes": [
        0
      ]
    }
  ]
}
