{
  "accessors": [
    {
      "name": "rod_geo_Mesh.434-Mesh_0_positions",
      "componentType": 5126,
      "count": 2763,
      "min": [
        -1.4305540323257446,
        -0.12894199788570404,
        -3.061331033706665
      ],
      "max": [
        1.4333629608154297,
        1.4351749420166016,
        3.0637660026550293
      ],
      "type": "VEC3",
      "bufferView": 0,
      "byteOffset": 0
    },
    {
      "name": "rod_geo_Mesh.434-Mesh_0_normals",
      "componentType": 5126,
      "count": 2763,
      "min": [
        -1,
        -1,
        -1
      ],
      "max": [
        1,
        1,
        1
      ],
      "type": "VEC3",
      "bufferView": 1,
      "byteOffset": 0
    },
    {
      "name": "rod_geo_Mesh.434-Mesh_0_texcoords",
      "componentType": 5126,
      "count": 2763,
      "min": [
        0.1680299937725067,
        0.0015079999575391412
      ],
      "max": [
        0.9754930138587952,
        1
      ],
      "type": "VEC2",
      "bufferView": 2,
      "byteOffset": 0
    },
    {
      "name": "rod_geo_Mesh.434-Mesh_0_indices",
      "componentType": 5123,
      "count": 6492,
      "min": [
        0
      ],
      "max": [
        2759
      ],
      "type": "SCALAR",
      "bufferView": 3,
      "byteOffset": 0
    }
  ],
  "asset": {
    "generator": "obj2gltf",
    "version": "2.0"
  },
  "buffers": [
    {
      "name": "car_03",
      "byteLength": 101400,
      "uri": "data:application/octet-stream;base64,"
    }
  ],
  "bufferViews": [
    {
      "name": "bufferView_0",
      "buffer": 0,
      "byteLength": 33156,
      "byteOffset": 0,
      "byteStride": 12,
      "target": 34962
    },
    {
      "name": "bufferView_1",
      "buffer": 0,
      "byteLength": 33156,
      "byteOffset": 33156,
      "byteStride": 12,
      "target": 34962
    },
    {
      "name": "bufferView_2",
      "buffer": 0,
      "byteLength": 22104,
      "byteOffset": 66312,
      "byteStride": 8,
      "target": 34962
    },
    {
      "name": "bufferView_3",
      "buffer": 0,
      "byteLength": 12984,
      "byteOffset": 88416,
      "target": 34963
    }
  ],
  "materials": [
    {
      "name": "default",
      "pbrMetallicRoughness": {
        "baseColorFactor": [
          0.5,
          0.5,
          0.5,
          1
        ],
        "metallicFactor": 0,
        "roughnessFactor": 1
      },
      "emissiveFactor": [
        0,
        0,
        0
      ],
      "alphaMode": "OPAQUE",
      "doubleSided": false
    }
  ],
  "meshes": [
    {
      "name": "rod_geo_Mesh.434-Mesh",
      "primitives": [
        {
          "attributes": {
            "POSITION": 0,
            "NORMAL": 1,
            "TEXCOORD_0": 2
          },
          "indices": 3,
          "material": 0,
          "mode": 4
        }
      ]
    }
  ],
  "nodes": [
    {
      "name": "rod_geo_Mesh.434",
      "mesh": 0
    }
  ],
  "scene": 0,
  "scenes": [
    {
      "nodes": [
        0
      ]
    }
  ]
}
