{
  "accessors": [
    {
      "name": "slick01_geo_Mesh.033-Mesh_0_positions",
      "componentType": 5126,
      "count": 1708,
      "min": [
        -2.324291944503784,
        -0.11355499923229218,
        -3.845712900161743
      ],
      "max": [
        2.340864896774292,
        1.205348014831543,
        3.7423229217529297
      ],
      "type": "VEC3",
      "bufferView": 0,
      "byteOffset": 0
    },
    {
      "name": "slick01_geo_Mesh.033-Mesh_0_normals",
      "componentType": 5126,
      "count": 1708,
      "min": [
        -1,
        -1,
        -0.9999837279319763
      ],
      "max": [
        1,
        1,
        0.9999206066131592
      ],
      "type": "VEC3",
      "bufferView": 1,
      "byteOffset": 0
    },
    {
      "name": "slick01_geo_Mesh.033-Mesh_0_texcoords",
      "componentType": 5126,
      "count": 1708,
      "min": [
        0.10204000025987625,
        0.08668400347232819
      ],
      "max": [
        0.9102150201797485,
        0.7794169783592224
      ],
      "type": "VEC2",
      "bufferView": 2,
      "byteOffset": 0
    },
    {
      "name": "slick01_geo_Mesh.033-Mesh_0_indices",
      "componentType": 5123,
      "count": 4392,
      "min": [
        0
      ],
      "max": [
        1707
      ],
      "type": "SCALAR",
      "bufferView": 3,
      "byteOffset": 0
    }
  ],
  "asset": {
    "generator": "obj2gltf",
    "version": "2.0"
  },
  "buffers": [
    {
      "name": "car_01",
      "byteLength": 63440,
      "uri": "data:application/octet-stream;base64,"
    }
  ],
  "bufferViews": [
    {
      "name": "bufferView_0",
      "buffer": 0,
      "byteLength": 20496,
      "byteOffset": 0,
      "byteStride": 12,
      "target": 34962
    },
    {
      "name": "bufferView_1",
      "buffer": 0,
      "byteLength": 20496,
      "byteOffset": 20496,
      "byteStride": 12,
      "target": 34962
    },
    {
      "name": "bufferView_2",
      "buffer": 0,
      "byteLength": 13664,
      "byteOffset": 40992,
      "byteStride": 8,
      "target": 34962
    },
    {
      "name": "bufferView_3",
      "buffer": 0,
      "byteLength": 8784,
      "byteOffset": 54656,
      "target": 34963
    }
  ],
  "materials": [
    {
      "name": "default",
      "pbrMetallicRoughness": {
        "baseColorFactor": [
          0.5,
          0.5,
          0.5,
          1
        ],
        "metallicFactor": 0,
        "roughnessFactor": 1
      },
      "emissiveFactor": [
        0,
        0,
        0
      ],
      "alphaMode": "OPAQUE",
      "doubleSided": false
    }
  ],
  "meshes": [
    {
      "name": "slick01_geo_Mesh.033-Mesh",
      "primitives": [
        {
          "attributes": {
            "POSITION": 0,
            "NORMAL": 1,
            "TEXCOORD_0": 2
          },
          "indices": 3,
          "material": 0,
          "mode": 4
        }
      ]
    }
  ],
  "nodes": [
    {
      "name": "slick01_geo_Mesh.033",
      "mesh": 0
    }
  ],
  "scene": 0,
  "scenes": [
    {
      "nodes": [
        0
      ]
    }
  ]
}
