{
  "accessors": [
    {
      "name": "canopyBig01_geo_Mesh.495-Mesh_0_positions",
      "componentType": 5126,
      "count": 5454,
      "min": [
        -2.0117740631103516,
        -0.19155700504779816,
        -8.32282829284668
      ],
      "max": [
        2.0123789310455322,
        3.463399887084961,
        8.312265396118164
      ],
      "type": "VEC3",
      "bufferView": 0,
      "byteOffset": 0
    },
    {
      "name": "canopyBig01_geo_Mesh.495-Mesh_0_normals",
      "componentType": 5126,
      "count": 5454,
      "min": [
        -1,
        -1,
        -1
      ],
      "max": [
        1,
        1,
        1
      ],
      "type": "VEC3",
      "bufferView": 1,
      "byteOffset": 0
    },
    {
      "name": "canopyBig01_geo_Mesh.495-Mesh_0_texcoords",
      "componentType": 5126,
      "count": 5454,
      "min": [
        0.023547999560832977,
        0.07810100167989731
      ],
      "max": [
        0.9744979739189148,
        0.9862170219421387
      ],
      "type": "VEC2",
      "bufferView": 2,
      "byteOffset": 0
    },
    {
      "name": "canopyBig01_geo_Mesh.495-Mesh_0_indices",
      "componentType": 5123,
      "count": 11940,
      "min": [
        0
      ],
      "max": [
        5453
      ],
      "type": "SCALAR",
      "bufferView": 3,
      "byteOffset": 0
    }
  ],
  "asset": {
    "generator": "obj2gltf",
    "version": "2.0"
  },
  "buffers": [
    {
      "name": "car_08",
      "byteLength": 198408,
      "uri": "data:application/octet-stream;base64,"
    }
  ],
  "bufferViews": [
    {
      "name": "bufferView_0",
      "buffer": 0,
      "byteLength": 65448,
      "byteOffset": 0,
      "byteStride": 12,
      "target": 34962
    },
    {
      "name": "bufferView_1",
      "buffer": 0,
      "byteLength": 65448,
      "byteOffset": 65448,
      "byteStride": 12,
      "target": 34962
    },
    {
      "name": "bufferView_2",
      "buffer": 0,
      "byteLength": 43632,
      "byteOffset": 130896,
      "byteStride": 8,
      "target": 34962
    },
    {
      "name": "bufferView_3",
      "buffer": 0,
      "byteLength": 23880,
      "byteOffset": 174528,
      "target": 34963
    }
  ],
  "materials": [
    {
      "name": "default",
      "pbrMetallicRoughness": {
        "baseColorFactor": [
          0.5,
          0.5,
          0.5,
          1
        ],
        "metallicFactor": 0,
        "roughnessFactor": 1
      },
      "emissiveFactor": [
        0,
        0,
        0
      ],
      "alphaMode": "OPAQUE",
      "doubleSided": false
    }
  ],
  "meshes": [
    {
      "name": "canopyBig01_geo_Mesh.495-Mesh",
      "primitives": [
        {
          "attributes": {
            "POSITION": 0,
            "NORMAL": 1,
            "TEXCOORD_0": 2
          },
          "indices": 3,
          "material": 0,
          "mode": 4
        }
      ]
    }
  ],
  "nodes": [
    {
      "name": "canopyBig01_geo_Mesh.495",
      "mesh": 0
    }
  ],
  "scene": 0,
  "scenes": [
    {
      "nodes": [
        0
      ]
    }
  ]
}
