{
  "accessors": [
    {
      "name": "dumpster_geo_Mesh.404-Mesh_0_positions",
      "componentType": 5126,
      "count": 2987,
      "min": [
        -2.006983995437622,
        -0.9583529829978943,
        -4.64635705947876
      ],
      "max": [
        2.1985130310058594,
        4.139401912689209,
        4.625640869140625
      ],
      "type": "VEC3",
      "bufferView": 0,
      "byteOffset": 0
    },
    {
      "name": "dumpster_geo_Mesh.404-Mesh_0_normals",
      "componentType": 5126,
      "count": 2987,
      "min": [
        -1,
        -1,
        -1
      ],
      "max": [
        1,
        1,
        1
      ],
      "type": "VEC3",
      "bufferView": 1,
      "byteOffset": 0
    },
    {
      "name": "dumpster_geo_Mesh.404-Mesh_0_texcoords",
      "componentType": 5126,
      "count": 2987,
      "min": [
        0.04123000055551529,
        0.047088999301195145
      ],
      "max": [
        0.9169930219650269,
        0.9437419772148132
      ],
      "type": "VEC2",
      "bufferView": 2,
      "byteOffset": 0
    },
    {
      "name": "dumpster_geo_Mesh.404-Mesh_0_indices",
      "componentType": 5123,
      "count": 6432,
      "min": [
        0
      ],
      "max": [
        2986
      ],
      "type": "SCALAR",
      "bufferView": 3,
      "byteOffset": 0
    }
  ],
  "asset": {
    "generator": "obj2gltf",
    "version": "2.0"
  },
  "buffers": [
    {
      "name": "car_05",
      "byteLength": 108448,
      "uri": "data:application/octet-stream;base64,"
    }
  ],
  "bufferViews": [
    {
      "name": "bufferView_0",
      "buffer": 0,
      "byteLength": 35844,
      "byteOffset": 0,
      "byteStride": 12,
      "target": 34962
    },
    {
      "name": "bufferView_1",
      "buffer": 0,
      "byteLength": 35844,
      "byteOffset": 35844,
      "byteStride": 12,
      "target": 34962
    },
    {
      "name": "bufferView_2",
      "buffer": 0,
      "byteLength": 23896,
      "byteOffset": 71688,
      "byteStride": 8,
      "target": 34962
    },
    {
      "name": "bufferView_3",
      "buffer": 0,
      "byteLength": 12864,
      "byteOffset": 95584,
      "target": 34963
    }
  ],
  "materials": [
    {
      "name": "default",
      "pbrMetallicRoughness": {
        "baseColorFactor": [
          0.5,
          0.5,
          0.5,
          1
        ],
        "metallicFactor": 0,
        "roughnessFactor": 1
      },
      "emissiveFactor": [
        0,
        0,
        0
      ],
      "alphaMode": "OPAQUE",
      "doubleSided": false
    }
  ],
  "meshes": [
    {
      "name": "dumpster_geo_Mesh.404-Mesh",
      "primitives": [
        {
          "attributes": {
            "POSITION": 0,
            "NORMAL": 1,
            "TEXCOORD_0": 2
          },
          "indices": 3,
          "material": 0,
          "mode": 4
        }
      ]
    }
  ],
  "nodes": [
    {
      "name": "dumpster_geo_Mesh.404",
      "mesh": 0
    }
  ],
  "scene": 0,
  "scenes": [
    {
      "nodes": [
        0
      ]
    }
  ]
}
