{
  "accessors": [
    {
      "name": "smooth18_geo_Mesh.386-Mesh_0_positions",
      "componentType": 5126,
      "count": 1868,
      "min": [
        -2.194366931915283,
        -0.3590730130672455,
        -4.134572982788086
      ],
      "max": [
        2.2023050785064697,
        2.045341968536377,
        4.081154823303223
      ],
      "type": "VEC3",
      "bufferView": 0,
      "byteOffset": 0
    },
    {
      "name": "smooth18_geo_Mesh.386-Mesh_0_normals",
      "componentType": 5126,
      "count": 1868,
      "min": [
        -1,
        -1,
        -1
      ],
      "max": [
        1,
        1,
        1
      ],
      "type": "VEC3",
      "bufferView": 1,
      "byteOffset": 0
    },
    {
      "name": "smooth18_geo_Mesh.386-Mesh_0_texcoords",
      "componentType": 5126,
      "count": 1868,
      "min": [
        0.05235999822616577,
        0.05431300029158592
      ],
      "max": [
        0.8913940191268921,
        0.9593589901924133
      ],
      "type": "VEC2",
      "bufferView": 2,
      "byteOffset": 0
    },
    {
      "name": "smooth18_geo_Mesh.386-Mesh_0_indices",
      "componentType": 5123,
      "count": 4770,
      "min": [
        0
      ],
      "max": [
        1867
      ],
      "type": "SCALAR",
      "bufferView": 3,
      "byteOffset": 0
    }
  ],
  "asset": {
    "generator": "obj2gltf",
    "version": "2.0"
  },
  "buffers": [
    {
      "name": "car_06",
      "byteLength": 69316,
      "uri": "data:application/octet-stream;base64,"
    }
  ],
  "bufferViews": [
    {
      "name": "bufferView_0",
      "buffer": 0,
      "byteLength": 22416,
      "byteOffset": 0,
      "byteStride": 12,
      "target": 34962
    },
    {
      "name": "bufferView_1",
      "buffer": 0,
      "byteLength": 22416,
      "byteOffset": 22416,
      "byteStride": 12,
      "target": 34962
    },
    {
      "name": "bufferView_2",
      "buffer": 0,
      "byteLength": 14944,
      "byteOffset": 44832,
      "byteStride": 8,
      "target": 34962
    },
    {
      "name": "bufferView_3",
      "buffer": 0,
      "byteLength": 9540,
      "byteOffset": 59776,
      "target": 34963
    }
  ],
  "materials": [
    {
      "name": "default",
      "pbrMetallicRoughness": {
        "baseColorFactor": [
          0.5,
          0.5,
          0.5,
          1
        ],
        "metallicFactor": 0,
        "roughnessFactor": 1
      },
      "emissiveFactor": [
        0,
        0,
        0
      ],
      "alphaMode": "OPAQUE",
      "doubleSided": false
    }
  ],
  "meshes": [
    {
      "name": "smooth18_geo_Mesh.386-Mesh",
      "primitives": [
        {
          "attributes": {
            "POSITION": 0,
            "NORMAL": 1,
            "TEXCOORD_0": 2
          },
          "indices": 3,
          "material": 0,
          "mode": 4
        }
      ]
    }
  ],
  "nodes": [
    {
      "name": "smooth18_geo_Mesh.386",
      "mesh": 0
    }
  ],
  "scene": 0,
  "scenes": [
    {
      "nodes": [
        0
      ]
    }
  ]
}
