{
  "accessors": [
    {
      "name": "Cube.032_Cube.038-Mesh_0_positions",
      "componentType": 5126,
      "count": 48882,
      "min": [
        -322.9284362792969,
        -15.175567626953125,
        -322.693359375
      ],
      "max": [
        321.20880126953125,
        348.07452392578125,
        322.0359191894531
      ],
      "type": "VEC3",
      "bufferView": 0,
      "byteOffset": 0
    },
    {
      "name": "Cube.032_Cube.038-Mesh_0_normals",
      "componentType": 5126,
      "count": 48882,
      "min": [
        -1,
        -1,
        -1
      ],
      "max": [
        1,
        1,
        1
      ],
      "type": "VEC3",
      "bufferView": 1,
      "byteOffset": 0
    },
    {
      "name": "Cube.032_Cube.038-Mesh_0_texcoords",
      "componentType": 5126,
      "count": 48882,
      "min": [
        -3.628809928894043,
        -3.628809928894043
      ],
      "max": [
        4.628809928894043,
        4.628809928894043
      ],
      "type": "VEC2",
      "bufferView": 2,
      "byteOffset": 0
    },
    {
      "name": "Cube.032_Cube.038-Mesh_0_indices",
      "componentType": 5123,
      "count": 69576,
      "min": [
        0
      ],
      "max": [
        48881
      ],
      "type": "SCALAR",
      "bufferView": 3,
      "byteOffset": 0
    }
  ],
  "asset": {
    "generator": "obj2gltf",
    "version": "2.0"
  },
  "buffers": [
    {
      "name": "mega_03",
      "byteLength": 1703376,
      "uri": "data:application/octet-stream;base64,"
    }
  ],
  "bufferViews": [
    {
      "name": "bufferView_0",
      "buffer": 0,
      "byteLength": 586584,
      "byteOffset": 0,
      "byteStride": 12,
      "target": 34962
    },
    {
      "name": "bufferView_1",
      "buffer": 0,
      "byteLength": 586584,
      "byteOffset": 586584,
      "byteStride": 12,
      "target": 34962
    },
    {
      "name": "bufferView_2",
      "buffer": 0,
      "byteLength": 391056,
      "byteOffset": 1173168,
      "byteStride": 8,
      "target": 34962
    },
    {
      "name": "bufferView_3",
      "buffer": 0,
      "byteLength": 139152,
      "byteOffset": 1564224,
      "target": 34963
    }
  ],
  "materials": [
    {
      "name": "mega",
      "pbrMetallicRoughness": {
        "baseColorFactor": [
          0.5,
          0.5,
          0.5,
          1
        ],
        "metallicFactor": 0,
        "roughnessFactor": 1
      },
      "emissiveFactor": [
        0,
        0,
        0
      ],
      "alphaMode": "OPAQUE",
      "doubleSided": false
    }
  ],
  "meshes": [
    {
      "name": "Cube.032_Cube.038-Mesh",
      "primitives": [
        {
          "attributes": {
            "POSITION": 0,
            "NORMAL": 1,
            "TEXCOORD_0": 2
          },
          "indices": 3,
          "material": 0,
          "mode": 4
        }
      ]
    }
  ],
  "nodes": [
    {
      "name": "Cube.032_Cube.038",
      "mesh": 0
    }
  ],
  "scene": 0,
  "scenes": [
    {
      "nodes": [
        0
      ]
    }
  ]
}
