{
  "accessors": [
    {
      "name": "Cube.034_Cube.041-Mesh_0_positions",
      "componentType": 5126,
      "count": 3279,
      "min": [
        -316.33154296875,
        -0.25666800141334534,
        -327.7735900878906
      ],
      "max": [
        322.9693298339844,
        494.8885498046875,
        325.75018310546875
      ],
      "type": "VEC3",
      "bufferView": 0,
      "byteOffset": 0
    },
    {
      "name": "Cube.034_Cube.041-Mesh_0_normals",
      "componentType": 5126,
      "count": 3279,
      "min": [
        -1,
        -1,
        -1
      ],
      "max": [
        1,
        1,
        1
      ],
      "type": "VEC3",
      "bufferView": 1,
      "byteOffset": 0
    },
    {
      "name": "Cube.034_Cube.041-Mesh_0_texcoords",
      "componentType": 5126,
      "count": 3279,
      "min": [
        -2.2110719680786133,
        -2.2110719680786133
      ],
      "max": [
        3.2110719680786133,
        3.2110719680786133
      ],
      "type": "VEC2",
      "bufferView": 2,
      "byteOffset": 0
    },
    {
      "name": "Cube.034_Cube.041-Mesh_0_indices",
      "componentType": 5123,
      "count": 5238,
      "min": [
        0
      ],
      "max": [
        3278
      ],
      "type": "SCALAR",
      "bufferView": 3,
      "byteOffset": 0
    }
  ],
  "asset": {
    "generator": "obj2gltf",
    "version": "2.0"
  },
  "buffers": [
    {
      "name": "mega_05",
      "byteLength": 115404,
      "uri": "data:application/octet-stream;base64,"
    }
  ],
  "bufferViews": [
    {
      "name": "bufferView_0",
      "buffer": 0,
      "byteLength": 39348,
      "byteOffset": 0,
      "byteStride": 12,
      "target": 34962
    },
    {
      "name": "bufferView_1",
      "buffer": 0,
      "byteLength": 39348,
      "byteOffset": 39348,
      "byteStride": 12,
      "target": 34962
    },
    {
      "name": "bufferView_2",
      "buffer": 0,
      "byteLength": 26232,
      "byteOffset": 78696,
      "byteStride": 8,
      "target": 34962
    },
    {
      "name": "bufferView_3",
      "buffer": 0,
      "byteLength": 10476,
      "byteOffset": 104928,
      "target": 34963
    }
  ],
  "materials": [
    {
      "name": "mega",
      "pbrMetallicRoughness": {
        "baseColorFactor": [
          0.5,
          0.5,
          0.5,
          1
        ],
        "metallicFactor": 0,
        "roughnessFactor": 1
      },
      "emissiveFactor": [
        0,
        0,
        0
      ],
      "alphaMode": "OPAQUE",
      "doubleSided": false
    }
  ],
  "meshes": [
    {
      "name": "Cube.034_Cube.041-Mesh",
      "primitives": [
        {
          "attributes": {
            "POSITION": 0,
            "NORMAL": 1,
            "TEXCOORD_0": 2
          },
          "indices": 3,
          "material": 0,
          "mode": 4
        }
      ]
    }
  ],
  "nodes": [
    {
      "name": "Cube.034_Cube.041",
      "mesh": 0
    }
  ],
  "scene": 0,
  "scenes": [
    {
      "nodes": [
        0
      ]
    }
  ]
}
