{
  "accessors": [
    {
      "name": "Corporate_1.001_Mesh.063-Mesh_0_positions",
      "componentType": 5126,
      "count": 53746,
      "min": [
        -128.7630157470703,
        -36.281341552734375,
        -252.47093200683594
      ],
      "max": [
        114.2410659790039,
        868.789794921875,
        243.55665588378906
      ],
      "type": "VEC3",
      "bufferView": 0,
      "byteOffset": 0
    },
    {
      "name": "Corporate_1.001_Mesh.063-Mesh_0_normals",
      "componentType": 5126,
      "count": 53746,
      "min": [
        -1,
        -1,
        -1
      ],
      "max": [
        1,
        1,
        1
      ],
      "type": "VEC3",
      "bufferView": 1,
      "byteOffset": 0
    },
    {
      "name": "Corporate_1.001_Mesh.063-Mesh_0_texcoords",
      "componentType": 5126,
      "count": 53746,
      "min": [
        -3.320794105529785,
        -3.320794105529785
      ],
      "max": [
        4.320794105529785,
        4.320794105529785
      ],
      "type": "VEC2",
      "bufferView": 2,
      "byteOffset": 0
    },
    {
      "name": "Corporate_1.001_Mesh.063-Mesh_0_indices",
      "componentType": 5123,
      "count": 81759,
      "min": [
        0
      ],
      "max": [
        53745
      ],
      "type": "SCALAR",
      "bufferView": 3,
      "byteOffset": 0
    }
  ],
  "asset": {
    "generator": "obj2gltf",
    "version": "2.0"
  },
  "buffers": [
    {
      "name": "mega_02",
      "byteLength": 1883392,
      "uri": "data:application/octet-stream;base64,"
    }
  ],
  "bufferViews": [
    {
      "name": "bufferView_0",
      "buffer": 0,
      "byteLength": 644952,
      "byteOffset": 0,
      "byteStride": 12,
      "target": 34962
    },
    {
      "name": "bufferView_1",
      "buffer": 0,
      "byteLength": 644952,
      "byteOffset": 644952,
      "byteStride": 12,
      "target": 34962
    },
    {
      "name": "bufferView_2",
      "buffer": 0,
      "byteLength": 429968,
      "byteOffset": 1289904,
      "byteStride": 8,
      "target": 34962
    },
    {
      "name": "bufferView_3",
      "buffer": 0,
      "byteLength": 163520,
      "byteOffset": 1719872,
      "target": 34963
    }
  ],
  "materials": [
    {
      "name": "mega",
      "pbrMetallicRoughness": {
        "baseColorFactor": [
          0.5,
          0.5,
          0.5,
          1
        ],
        "metallicFactor": 0,
        "roughnessFactor": 1
      },
      "emissiveFactor": [
        0,
        0,
        0
      ],
      "alphaMode": "OPAQUE",
      "doubleSided": false
    }
  ],
  "meshes": [
    {
      "name": "Corporate_1.001_Mesh.063-Mesh",
      "primitives": [
        {
          "attributes": {
            "POSITION": 0,
            "NORMAL": 1,
            "TEXCOORD_0": 2
          },
          "indices": 3,
          "material": 0,
          "mode": 4
        }
      ]
    }
  ],
  "nodes": [
    {
      "name": "Corporate_1.001_Mesh.063",
      "mesh": 0
    }
  ],
  "scene": 0,
  "scenes": [
    {
      "nodes": [
        0
      ]
    }
  ]
}
