{
  "accessors": [
    {
      "name": "Sphere-Mesh_0_positions",
      "componentType": 5126,
      "count": 2302,
      "min": [
        -13.620798110961914,
        0.05056000128388405,
        -15.763284683227539
      ],
      "max": [
        13.696611404418945,
        22.370433807373047,
        12.99308967590332
      ],
      "type": "VEC3",
      "bufferView": 0,
      "byteOffset": 0
    },
    {
      "name": "Sphere-Mesh_0_normals",
      "componentType": 5126,
      "count": 2302,
      "min": [
        -1,
        -1,
        -1
      ],
      "max": [
        0.9946951270103455,
        0.9956644773483276,
        1
      ],
      "type": "VEC3",
      "bufferView": 1,
      "byteOffset": 0
    },
    {
      "name": "Sphere-Mesh_0_texcoords",
      "componentType": 5126,
      "count": 2302,
      "min": [
        0.0031369999051094055,
        0.37618398666381836
      ],
      "max": [
        0.4968630075454712,
        0.8699089884757996
      ],
      "type": "VEC2",
      "bufferView": 2,
      "byteOffset": 0
    },
    {
      "name": "Sphere-Mesh_0_indices",
      "componentType": 5123,
      "count": 3606,
      "min": [
        0
      ],
      "max": [
        2301
      ],
      "type": "SCALAR",
      "bufferView": 3,
      "byteOffset": 0
    }
  ],
  "asset": {
    "generator": "obj2gltf",
    "version": "2.0"
  },
  "buffers": [
    {
      "name": "topper_05",
      "byteLength": 80876,
      "uri": "data:application/octet-stream;base64,"
    }
  ],
  "bufferViews": [
    {
      "name": "bufferView_0",
      "buffer": 0,
      "byteLength": 27624,
      "byteOffset": 0,
      "byteStride": 12,
      "target": 34962
    },
    {
      "name": "bufferView_1",
      "buffer": 0,
      "byteLength": 27624,
      "byteOffset": 27624,
      "byteStride": 12,
      "target": 34962
    },
    {
      "name": "bufferView_2",
      "buffer": 0,
      "byteLength": 18416,
      "byteOffset": 55248,
      "byteStride": 8,
      "target": 34962
    },
    {
      "name": "bufferView_3",
      "buffer": 0,
      "byteLength": 7212,
      "byteOffset": 73664,
      "target": 34963
    }
  ],
  "materials": [
    {
      "name": "default",
      "pbrMetallicRoughness": {
        "baseColorFactor": [
          0.5,
          0.5,
          0.5,
          1
        ],
        "metallicFactor": 0,
        "roughnessFactor": 1
      },
      "emissiveFactor": [
        0,
        0,
        0
      ],
      "alphaMode": "OPAQUE",
      "doubleSided": false
    }
  ],
  "meshes": [
    {
      "name": "Sphere-Mesh",
      "primitives": [
        {
          "attributes": {
            "POSITION": 0,
            "NORMAL": 1,
            "TEXCOORD_0": 2
          },
          "indices": 3,
          "material": 0,
          "mode": 4
        }
      ]
    }
  ],
  "nodes": [
    {
      "name": "Sphere",
      "mesh": 0
    }
  ],
  "scene": 0,
  "scenes": [
    {
      "nodes": [
        0
      ]
    }
  ]
}
