{
  "accessors": [
    {
      "name": "LilRobot-Mesh_0_positions",
      "componentType": 5126,
      "count": 531,
      "min": [
        -14.069761276245117,
        -0.34184399247169495,
        -14.358936309814453
      ],
      "max": [
        14.067462921142578,
        31.411235809326172,
        14.161190032958984
      ],
      "type": "VEC3",
      "bufferView": 0,
      "byteOffset": 0
    },
    {
      "name": "LilRobot-Mesh_0_normals",
      "componentType": 5126,
      "count": 531,
      "min": [
        -0.9995960593223572,
        -0.9978519082069397,
        -0.9929924011230469
      ],
      "max": [
        0.9946482181549072,
        0.9963531494140625,
        0.9910994172096252
      ],
      "type": "VEC3",
      "bufferView": 1,
      "byteOffset": 0
    },
    {
      "name": "LilRobot-Mesh_0_texcoords",
      "componentType": 5126,
      "count": 531,
      "min": [
        0.0041519999504089355,
        0
      ],
      "max": [
        0.49194198846817017,
        1
      ],
      "type": "VEC2",
      "bufferView": 2,
      "byteOffset": 0
    },
    {
      "name": "LilRobot-Mesh_0_indices",
      "componentType": 5123,
      "count": 2070,
      "min": [
        0
      ],
      "max": [
        530
      ],
      "type": "SCALAR",
      "bufferView": 3,
      "byteOffset": 0
    }
  ],
  "asset": {
    "generator": "obj2gltf",
    "version": "2.0"
  },
  "buffers": [
    {
      "name": "topper_03",
      "byteLength": 21132,
      "uri": "data:application/octet-stream;base64,"
    }
  ],
  "bufferViews": [
    {
      "name": "bufferView_0",
      "buffer": 0,
      "byteLength": 6372,
      "byteOffset": 0,
      "byteStride": 12,
      "target": 34962
    },
    {
      "name": "bufferView_1",
      "buffer": 0,
      "byteLength": 6372,
      "byteOffset": 6372,
      "byteStride": 12,
      "target": 34962
    },
    {
      "name": "bufferView_2",
      "buffer": 0,
      "byteLength": 4248,
      "byteOffset": 12744,
      "byteStride": 8,
      "target": 34962
    },
    {
      "name": "bufferView_3",
      "buffer": 0,
      "byteLength": 4140,
      "byteOffset": 16992,
      "target": 34963
    }
  ],
  "materials": [
    {
      "name": "default",
      "pbrMetallicRoughness": {
        "baseColorFactor": [
          0.5,
          0.5,
          0.5,
          1
        ],
        "metallicFactor": 0,
        "roughnessFactor": 1
      },
      "emissiveFactor": [
        0,
        0,
        0
      ],
      "alphaMode": "OPAQUE",
      "doubleSided": false
    }
  ],
  "meshes": [
    {
      "name": "LilRobot-Mesh",
      "primitives": [
        {
          "attributes": {
            "POSITION": 0,
            "NORMAL": 1,
            "TEXCOORD_0": 2
          },
          "indices": 3,
          "material": 0,
          "mode": 4
        }
      ]
    }
  ],
  "nodes": [
    {
      "name": "LilRobot",
      "mesh": 0
    }
  ],
  "scene": 0,
  "scenes": [
    {
      "nodes": [
        0
      ]
    }
  ]
}
