{
  "accessors": [
    {
      "name": "slick01_geo_Mesh.033-Mesh_0_positions",
      "componentType": 5126,
      "count": 1396,
      "min": [
        -14.363130569458008,
        1.832373023033142,
        -21.117841720581055
      ],
      "max": [
        14.465544700622559,
        24.145803451538086,
        21.33599853515625
      ],
      "type": "VEC3",
      "bufferView": 0,
      "byteOffset": 0
    },
    {
      "name": "slick01_geo_Mesh.033-Mesh_0_normals",
      "componentType": 5126,
      "count": 1396,
      "min": [
        -1,
        -0.9977909326553345,
        -0.9984332323074341
      ],
      "max": [
        1,
        0.9984077215194702,
        0.9985945224761963
      ],
      "type": "VEC3",
      "bufferView": 1,
      "byteOffset": 0
    },
    {
      "name": "slick01_geo_Mesh.033-Mesh_0_texcoords",
      "componentType": 5126,
      "count": 1396,
      "min": [
        0.01657399907708168,
        0.016959000378847122
      ],
      "max": [
        0.4797089993953705,
        0.9890260100364685
      ],
      "type": "VEC2",
      "bufferView": 2,
      "byteOffset": 0
    },
    {
      "name": "slick01_geo_Mesh.033-Mesh_0_indices",
      "componentType": 5123,
      "count": 4392,
      "min": [
        0
      ],
      "max": [
        1395
      ],
      "type": "SCALAR",
      "bufferView": 3,
      "byteOffset": 0
    }
  ],
  "asset": {
    "generator": "obj2gltf",
    "version": "2.0"
  },
  "buffers": [
    {
      "name": "topper_06",
      "byteLength": 53456,
      "uri": "data:application/octet-stream;base64,"
    }
  ],
  "bufferViews": [
    {
      "name": "bufferView_0",
      "buffer": 0,
      "byteLength": 16752,
      "byteOffset": 0,
      "byteStride": 12,
      "target": 34962
    },
    {
      "name": "bufferView_1",
      "buffer": 0,
      "byteLength": 16752,
      "byteOffset": 16752,
      "byteStride": 12,
      "target": 34962
    },
    {
      "name": "bufferView_2",
      "buffer": 0,
      "byteLength": 11168,
      "byteOffset": 33504,
      "byteStride": 8,
      "target": 34962
    },
    {
      "name": "bufferView_3",
      "buffer": 0,
      "byteLength": 8784,
      "byteOffset": 44672,
      "target": 34963
    }
  ],
  "materials": [
    {
      "name": "default",
      "pbrMetallicRoughness": {
        "baseColorFactor": [
          0.5,
          0.5,
          0.5,
          1
        ],
        "metallicFactor": 0,
        "roughnessFactor": 1
      },
      "emissiveFactor": [
        0,
        0,
        0
      ],
      "alphaMode": "OPAQUE",
      "doubleSided": false
    }
  ],
  "meshes": [
    {
      "name": "slick01_geo_Mesh.033-Mesh",
      "primitives": [
        {
          "attributes": {
            "POSITION": 0,
            "NORMAL": 1,
            "TEXCOORD_0": 2
          },
          "indices": 3,
          "material": 0,
          "mode": 4
        }
      ]
    }
  ],
  "nodes": [
    {
      "name": "slick01_geo_Mesh.033",
      "mesh": 0
    }
  ],
  "scene": 0,
  "scenes": [
    {
      "nodes": [
        0
      ]
    }
  ]
}
