{
  "accessors": [
    {
      "name": "Model_Cylinder-Mesh_0_positions",
      "componentType": 5126,
      "count": 475,
      "min": [
        -13.550094604492188,
        -0.44172900915145874,
        -11.684165954589844
      ],
      "max": [
        11.924549102783203,
        43.77655029296875,
        11.849519729614258
      ],
      "type": "VEC3",
      "bufferView": 0,
      "byteOffset": 0
    },
    {
      "name": "Model_Cylinder-Mesh_0_normals",
      "componentType": 5126,
      "count": 475,
      "min": [
        -0.9995937943458557,
        -0.9976921677589417,
        -0.9969768524169922
      ],
      "max": [
        0.9999990463256836,
        0.9994910955429077,
        0.9969768524169922
      ],
      "type": "VEC3",
      "bufferView": 1,
      "byteOffset": 0
    },
    {
      "name": "Model_Cylinder-Mesh_0_texcoords",
      "componentType": 5126,
      "count": 475,
      "min": [
        0.004424999933689833,
        0
      ],
      "max": [
        0.4916689991950989,
        1
      ],
      "type": "VEC2",
      "bufferView": 2,
      "byteOffset": 0
    },
    {
      "name": "Model_Cylinder-Mesh_0_indices",
      "componentType": 5123,
      "count": 2718,
      "min": [
        0
      ],
      "max": [
        474
      ],
      "type": "SCALAR",
      "bufferView": 3,
      "byteOffset": 0
    }
  ],
  "asset": {
    "generator": "obj2gltf",
    "version": "2.0"
  },
  "buffers": [
    {
      "name": "topper_02",
      "byteLength": 20636,
      "uri": "data:application/octet-stream;base64,"
    }
  ],
  "bufferViews": [
    {
      "name": "bufferView_0",
      "buffer": 0,
      "byteLength": 5700,
      "byteOffset": 0,
      "byteStride": 12,
      "target": 34962
    },
    {
      "name": "bufferView_1",
      "buffer": 0,
      "byteLength": 5700,
      "byteOffset": 5700,
      "byteStride": 12,
      "target": 34962
    },
    {
      "name": "bufferView_2",
      "buffer": 0,
      "byteLength": 3800,
      "byteOffset": 11400,
      "byteStride": 8,
      "target": 34962
    },
    {
      "name": "bufferView_3",
      "buffer": 0,
      "byteLength": 5436,
      "byteOffset": 15200,
      "target": 34963
    }
  ],
  "materials": [
    {
      "name": "default",
      "pbrMetallicRoughness": {
        "baseColorFactor": [
          0.5,
          0.5,
          0.5,
          1
        ],
        "metallicFactor": 0,
        "roughnessFactor": 1
      },
      "emissiveFactor": [
        0,
        0,
        0
      ],
      "alphaMode": "OPAQUE",
      "doubleSided": false
    }
  ],
  "meshes": [
    {
      "name": "Model_Cylinder-Mesh",
      "primitives": [
        {
          "attributes": {
            "POSITION": 0,
            "NORMAL": 1,
            "TEXCOORD_0": 2
          },
          "indices": 3,
          "material": 0,
          "mode": 4
        }
      ]
    }
  ],
  "nodes": [
    {
      "name": "Model_Cylinder",
      "mesh": 0
    }
  ],
  "scene": 0,
  "scenes": [
    {
      "nodes": [
        0
      ]
    }
  ]
}
