{
  "accessors": [
    {
      "name": "Cube.022_Cube.016-Mesh_0_positions",
      "componentType": 5126,
      "count": 225,
      "min": [
        -64.80913543701172,
        110.00432586669922,
        -58.01079559326172
      ],
      "max": [
        63.58919906616211,
        347.2569580078125,
        70.38754272460938
      ],
      "type": "VEC3",
      "bufferView": 0,
      "byteOffset": 0
    },
    {
      "name": "Cube.022_Cube.016-Mesh_0_normals",
      "componentType": 5126,
      "count": 225,
      "min": [
        -1,
        -0.22420921921730042,
        -1
      ],
      "max": [
        0.9747774004936218,
        0,
        0.9726474285125732
      ],
      "type": "VEC3",
      "bufferView": 1,
      "byteOffset": 0
    },
    {
      "name": "Cube.022_Cube.016-Mesh_0_texcoords",
      "componentType": 5126,
      "count": 225,
      "min": [
        -0.0001740000006975606,
        0.0046179997734725475
      ],
      "max": [
        0.9956719875335693,
        0.9984790086746216
      ],
      "type": "VEC2",
      "bufferView": 2,
      "byteOffset": 0
    },
    {
      "name": "Cube.022_Cube.016-Mesh_0_indices",
      "componentType": 5123,
      "count": 348,
      "min": [
        0
      ],
      "max": [
        224
      ],
      "type": "SCALAR",
      "bufferView": 3,
      "byteOffset": 0
    }
  ],
  "asset": {
    "generator": "obj2gltf",
    "version": "2.0"
  },
  "buffers": [
    {
      "name": "ads_s_04_04",
      "byteLength": 7896,
      "uri": "data:application/octet-stream;base64,"
    }
  ],
  "bufferViews": [
    {
      "name": "bufferView_0",
      "buffer": 0,
      "byteLength": 2700,
      "byteOffset": 0,
      "byteStride": 12,
      "target": 34962
    },
    {
      "name": "bufferView_1",
      "buffer": 0,
      "byteLength": 2700,
      "byteOffset": 2700,
      "byteStride": 12,
      "target": 34962
    },
    {
      "name": "bufferView_2",
      "buffer": 0,
      "byteLength": 1800,
      "byteOffset": 5400,
      "byteStride": 8,
      "target": 34962
    },
    {
      "name": "bufferView_3",
      "buffer": 0,
      "byteLength": 696,
      "byteOffset": 7200,
      "target": 34963
    }
  ],
  "materials": [
    {
      "name": "ads",
      "pbrMetallicRoughness": {
        "baseColorFactor": [
          0.5,
          0.5,
          0.5,
          1
        ],
        "metallicFactor": 0,
        "roughnessFactor": 1
      },
      "emissiveFactor": [
        0,
        0,
        0
      ],
      "alphaMode": "OPAQUE",
      "doubleSided": false
    }
  ],
  "meshes": [
    {
      "name": "Cube.022_Cube.016-Mesh",
      "primitives": [
        {
          "attributes": {
            "POSITION": 0,
            "NORMAL": 1,
            "TEXCOORD_0": 2
          },
          "indices": 3,
          "material": 0,
          "mode": 4
        }
      ]
    }
  ],
  "nodes": [
    {
      "name": "Cube.022_Cube.016",
      "mesh": 0
    }
  ],
  "scene": 0,
  "scenes": [
    {
      "nodes": [
        0
      ]
    }
  ]
}
