{
  "accessors": [
    {
      "name": "Cube.021_Cube.012-Mesh_0_positions",
      "componentType": 5126,
      "count": 105,
      "min": [
        -62.407806396484375,
        76.43290710449219,
        -58.4219856262207
      ],
      "max": [
        63.74427032470703,
        327.6977844238281,
        67.7301254272461
      ],
      "type": "VEC3",
      "bufferView": 0,
      "byteOffset": 0
    },
    {
      "name": "Cube.021_Cube.012-Mesh_0_normals",
      "componentType": 5126,
      "count": 105,
      "min": [
        -1,
        -0.2634067237377167,
        -1
      ],
      "max": [
        1,
        0,
        0.9346438646316528
      ],
      "type": "VEC3",
      "bufferView": 1,
      "byteOffset": 0
    },
    {
      "name": "Cube.021_Cube.012-Mesh_0_texcoords",
      "componentType": 5126,
      "count": 105,
      "min": [
        -0.0001740000006975606,
        0.0046179997734725475
      ],
      "max": [
        0.9956719875335693,
        0.9984790086746216
      ],
      "type": "VEC2",
      "bufferView": 2,
      "byteOffset": 0
    },
    {
      "name": "Cube.021_Cube.012-Mesh_0_indices",
      "componentType": 5123,
      "count": 168,
      "min": [
        0
      ],
      "max": [
        104
      ],
      "type": "SCALAR",
      "bufferView": 3,
      "byteOffset": 0
    }
  ],
  "asset": {
    "generator": "obj2gltf",
    "version": "2.0"
  },
  "buffers": [
    {
      "name": "ads_s_04_03",
      "byteLength": 3696,
      "uri": "data:application/octet-stream;base64,"
    }
  ],
  "bufferViews": [
    {
      "name": "bufferView_0",
      "buffer": 0,
      "byteLength": 1260,
      "byteOffset": 0,
      "byteStride": 12,
      "target": 34962
    },
    {
      "name": "bufferView_1",
      "buffer": 0,
      "byteLength": 1260,
      "byteOffset": 1260,
      "byteStride": 12,
      "target": 34962
    },
    {
      "name": "bufferView_2",
      "buffer": 0,
      "byteLength": 840,
      "byteOffset": 2520,
      "byteStride": 8,
      "target": 34962
    },
    {
      "name": "bufferView_3",
      "buffer": 0,
      "byteLength": 336,
      "byteOffset": 3360,
      "target": 34963
    }
  ],
  "materials": [
    {
      "name": "ads",
      "pbrMetallicRoughness": {
        "baseColorFactor": [
          0.5,
          0.5,
          0.5,
          1
        ],
        "metallicFactor": 0,
        "roughnessFactor": 1
      },
      "emissiveFactor": [
        0,
        0,
        0
      ],
      "alphaMode": "OPAQUE",
      "doubleSided": false
    }
  ],
  "meshes": [
    {
      "name": "Cube.021_Cube.012-Mesh",
      "primitives": [
        {
          "attributes": {
            "POSITION": 0,
            "NORMAL": 1,
            "TEXCOORD_0": 2
          },
          "indices": 3,
          "material": 0,
          "mode": 4
        }
      ]
    }
  ],
  "nodes": [
    {
      "name": "Cube.021_Cube.012",
      "mesh": 0
    }
  ],
  "scene": 0,
  "scenes": [
    {
      "nodes": [
        0
      ]
    }
  ]
}
