{
  "accessors": [
    {
      "name": "smoothBase_geo_Mesh.370-Mesh_0_positions",
      "componentType": 5126,
      "count": 2084,
      "min": [
        -1.2981849908828735,
        -0.0877629965543747,
        -2.8880600929260254
      ],
      "max": [
        1.2999670505523682,
        1.2388529777526855,
        2.811594009399414
      ],
      "type": "VEC3",
      "bufferView": 0,
      "byteOffset": 0
    },
    {
      "name": "smoothBase_geo_Mesh.370-Mesh_0_normals",
      "componentType": 5126,
      "count": 2084,
      "min": [
        -1,
        -1,
        -1
      ],
      "max": [
        1,
        1,
        1
      ],
      "type": "VEC3",
      "bufferView": 1,
      "byteOffset": 0
    },
    {
      "name": "smoothBase_geo_Mesh.370-Mesh_0_texcoords",
      "componentType": 5126,
      "count": 2084,
      "min": [
        0.02974800020456314,
        0.0306209996342659
      ],
      "max": [
        0.9702529907226562,
        0.9727129936218262
      ],
      "type": "VEC2",
      "bufferView": 2,
      "byteOffset": 0
    },
    {
      "name": "smoothBase_geo_Mesh.370-Mesh_0_indices",
      "componentType": 5123,
      "count": 5616,
      "min": [
        0
      ],
      "max": [
        2083
      ],
      "type": "SCALAR",
      "bufferView": 3,
      "byteOffset": 0
    }
  ],
  "asset": {
    "generator": "obj2gltf",
    "version": "2.0"
  },
  "buffers": [
    {
      "name": "car_02",
      "byteLength": 77920,
      "uri": "data:application/octet-stream;base64,"
    }
  ],
  "bufferViews": [
    {
      "name": "bufferView_0",
      "buffer": 0,
      "byteLength": 25008,
      "byteOffset": 0,
      "byteStride": 12,
      "target": 34962
    },
    {
      "name": "bufferView_1",
      "buffer": 0,
      "byteLength": 25008,
      "byteOffset": 25008,
      "byteStride": 12,
      "target": 34962
    },
    {
      "name": "bufferView_2",
      "buffer": 0,
      "byteLength": 16672,
      "byteOffset": 50016,
      "byteStride": 8,
      "target": 34962
    },
    {
      "name": "bufferView_3",
      "buffer": 0,
      "byteLength": 11232,
      "byteOffset": 66688,
      "target": 34963
    }
  ],
  "materials": [
    {
      "name": "default",
      "pbrMetallicRoughness": {
        "baseColorFactor": [
          0.5,
          0.5,
          0.5,
          1
        ],
        "metallicFactor": 0,
        "roughnessFactor": 1
      },
      "emissiveFactor": [
        0,
        0,
        0
      ],
      "alphaMode": "OPAQUE",
      "doubleSided": false
    }
  ],
  "meshes": [
    {
      "name": "smoothBase_geo_Mesh.370-Mesh",
      "primitives": [
        {
          "attributes": {
            "POSITION": 0,
            "NORMAL": 1,
            "TEXCOORD_0": 2
          },
          "indices": 3,
          "material": 0,
          "mode": 4
        }
      ]
    }
  ],
  "nodes": [
    {
      "name": "smoothBase_geo_Mesh.370",
      "mesh": 0
    }
  ],
  "scene": 0,
  "scenes": [
    {
      "nodes": [
        0
      ]
    }
  ]
}
