{
  "accessors": [
    {
      "name": "boat_geo_Mesh.438-Mesh_0_positions",
      "componentType": 5126,
      "count": 1924,
      "min": [
        -1.2330119609832764,
        -0.24948899447917938,
        -3.013607978820801
      ],
      "max": [
        1.2335020303726196,
        1.3107869625091553,
        2.9267349243164062
      ],
      "type": "VEC3",
      "bufferView": 0,
      "byteOffset": 0
    },
    {
      "name": "boat_geo_Mesh.438-Mesh_0_normals",
      "componentType": 5126,
      "count": 1924,
      "min": [
        -1,
        -1,
        -1
      ],
      "max": [
        1,
        1,
        1
      ],
      "type": "VEC3",
      "bufferView": 1,
      "byteOffset": 0
    },
    {
      "name": "boat_geo_Mesh.438-Mesh_0_texcoords",
      "componentType": 5126,
      "count": 1924,
      "min": [
        0.015575000084936619,
        0.13030500710010529
      ],
      "max": [
        0.7632610201835632,
        0.9869809746742249
      ],
      "type": "VEC2",
      "bufferView": 2,
      "byteOffset": 0
    },
    {
      "name": "boat_geo_Mesh.438-Mesh_0_indices",
      "componentType": 5123,
      "count": 4272,
      "min": [
        0
      ],
      "max": [
        1923
      ],
      "type": "SCALAR",
      "bufferView": 3,
      "byteOffset": 0
    }
  ],
  "asset": {
    "generator": "obj2gltf",
    "version": "2.0"
  },
  "buffers": [
    {
      "name": "car_04",
      "byteLength": 70112,
      "uri": "data:application/octet-stream;base64,"
    }
  ],
  "bufferViews": [
    {
      "name": "bufferView_0",
      "buffer": 0,
      "byteLength": 23088,
      "byteOffset": 0,
      "byteStride": 12,
      "target": 34962
    },
    {
      "name": "bufferView_1",
      "buffer": 0,
      "byteLength": 23088,
      "byteOffset": 23088,
      "byteStride": 12,
      "target": 34962
    },
    {
      "name": "bufferView_2",
      "buffer": 0,
      "byteLength": 15392,
      "byteOffset": 46176,
      "byteStride": 8,
      "target": 34962
    },
    {
      "name": "bufferView_3",
      "buffer": 0,
      "byteLength": 8544,
      "byteOffset": 61568,
      "target": 34963
    }
  ],
  "materials": [
    {
      "name": "default",
      "pbrMetallicRoughness": {
        "baseColorFactor": [
          0.5,
          0.5,
          0.5,
          1
        ],
        "metallicFactor": 0,
        "roughnessFactor": 1
      },
      "emissiveFactor": [
        0,
        0,
        0
      ],
      "alphaMode": "OPAQUE",
      "doubleSided": false
    }
  ],
  "meshes": [
    {
      "name": "boat_geo_Mesh.438-Mesh",
      "primitives": [
        {
          "attributes": {
            "POSITION": 0,
            "NORMAL": 1,
            "TEXCOORD_0": 2
          },
          "indices": 3,
          "material": 0,
          "mode": 4
        }
      ]
    }
  ],
  "nodes": [
    {
      "name": "boat_geo_Mesh.438",
      "mesh": 0
    }
  ],
  "scene": 0,
  "scenes": [
    {
      "nodes": [
        0
      ]
    }
  ]
}
