{
  "accessors": [
    {
      "name": "Cube.033_Cube.039-Mesh_0_positions",
      "componentType": 5126,
      "count": 9476,
      "min": [
        -320.8248291015625,
        -23.137832641601562,
        -329.7448425292969
      ],
      "max": [
        319.0832824707031,
        680.8050537109375,
        313.1377868652344
      ],
      "type": "VEC3",
      "bufferView": 0,
      "byteOffset": 0
    },
    {
      "name": "Cube.033_Cube.039-Mesh_0_normals",
      "componentType": 5126,
      "count": 9476,
      "min": [
        -1,
        -1,
        -1
      ],
      "max": [
        1,
        1,
        1
      ],
      "type": "VEC3",
      "bufferView": 1,
      "byteOffset": 0
    },
    {
      "name": "Cube.033_Cube.039-Mesh_0_texcoords",
      "componentType": 5126,
      "count": 9476,
      "min": [
        -2.9656500816345215,
        -2.9656500816345215
      ],
      "max": [
        3.9656500816345215,
        3.9656500816345215
      ],
      "type": "VEC2",
      "bufferView": 2,
      "byteOffset": 0
    },
    {
      "name": "Cube.033_Cube.039-Mesh_0_indices",
      "componentType": 5123,
      "count": 15411,
      "min": [
        0
      ],
      "max": [
        9475
      ],
      "type": "SCALAR",
      "bufferView": 3,
      "byteOffset": 0
    }
  ],
  "asset": {
    "generator": "obj2gltf",
    "version": "2.0"
  },
  "buffers": [
    {
      "name": "mega_04",
      "byteLength": 334056,
      "uri": "data:application/octet-stream;base64,"
    }
  ],
  "bufferViews": [
    {
      "name": "bufferView_0",
      "buffer": 0,
      "byteLength": 113712,
      "byteOffset": 0,
      "byteStride": 12,
      "target": 34962
    },
    {
      "name": "bufferView_1",
      "buffer": 0,
      "byteLength": 113712,
      "byteOffset": 113712,
      "byteStride": 12,
      "target": 34962
    },
    {
      "name": "bufferView_2",
      "buffer": 0,
      "byteLength": 75808,
      "byteOffset": 227424,
      "byteStride": 8,
      "target": 34962
    },
    {
      "name": "bufferView_3",
      "buffer": 0,
      "byteLength": 30824,
      "byteOffset": 303232,
      "target": 34963
    }
  ],
  "materials": [
    {
      "name": "mega",
      "pbrMetallicRoughness": {
        "baseColorFactor": [
          0.5,
          0.5,
          0.5,
          1
        ],
        "metallicFactor": 0,
        "roughnessFactor": 1
      },
      "emissiveFactor": [
        0,
        0,
        0
      ],
      "alphaMode": "OPAQUE",
      "doubleSided": false
    }
  ],
  "meshes": [
    {
      "name": "Cube.033_Cube.039-Mesh",
      "primitives": [
        {
          "attributes": {
            "POSITION": 0,
            "NORMAL": 1,
            "TEXCOORD_0": 2
          },
          "indices": 3,
          "material": 0,
          "mode": 4
        }
      ]
    }
  ],
  "nodes": [
    {
      "name": "Cube.033_Cube.039",
      "mesh": 0
    }
  ],
  "scene": 0,
  "scenes": [
    {
      "nodes": [
        0
      ]
    }
  ]
}
