{
  "accessors": [
    {
      "name": "Cube.036_Cube.050-Mesh_0_positions",
      "componentType": 5126,
      "count": 2889,
      "min": [
        -195.49130249023438,
        -21.49109649658203,
        -137.86767578125
      ],
      "max": [
        187.08421325683594,
        990.8014526367188,
        142.4970245361328
      ],
      "type": "VEC3",
      "bufferView": 0,
      "byteOffset": 0
    },
    {
      "name": "Cube.036_Cube.050-Mesh_0_normals",
      "componentType": 5126,
      "count": 2889,
      "min": [
        -1,
        -1,
        -1
      ],
      "max": [
        1,
        1,
        1
      ],
      "type": "VEC3",
      "bufferView": 1,
      "byteOffset": 0
    },
    {
      "name": "Cube.036_Cube.050-Mesh_0_texcoords",
      "componentType": 5126,
      "count": 2889,
      "min": [
        -2.2720210552215576,
        -2.2720210552215576
      ],
      "max": [
        3.2720210552215576,
        3.2720210552215576
      ],
      "type": "VEC2",
      "bufferView": 2,
      "byteOffset": 0
    },
    {
      "name": "Cube.036_Cube.050-Mesh_0_indices",
      "componentType": 5123,
      "count": 5361,
      "min": [
        0
      ],
      "max": [
        2888
      ],
      "type": "SCALAR",
      "bufferView": 3,
      "byteOffset": 0
    }
  ],
  "asset": {
    "generator": "obj2gltf",
    "version": "2.0"
  },
  "buffers": [
    {
      "name": "mega_01",
      "byteLength": 103172,
      "uri": "data:application/octet-stream;base64,"
    }
  ],
  "bufferViews": [
    {
      "name": "bufferView_0",
      "buffer": 0,
      "byteLength": 34668,
      "byteOffset": 0,
      "byteStride": 12,
      "target": 34962
    },
    {
      "name": "bufferView_1",
      "buffer": 0,
      "byteLength": 34668,
      "byteOffset": 34668,
      "byteStride": 12,
      "target": 34962
    },
    {
      "name": "bufferView_2",
      "buffer": 0,
      "byteLength": 23112,
      "byteOffset": 69336,
      "byteStride": 8,
      "target": 34962
    },
    {
      "name": "bufferView_3",
      "buffer": 0,
      "byteLength": 10724,
      "byteOffset": 92448,
      "target": 34963
    }
  ],
  "materials": [
    {
      "name": "mega",
      "pbrMetallicRoughness": {
        "baseColorFactor": [
          0.5,
          0.5,
          0.5,
          1
        ],
        "metallicFactor": 0,
        "roughnessFactor": 1
      },
      "emissiveFactor": [
        0,
        0,
        0
      ],
      "alphaMode": "OPAQUE",
      "doubleSided": false
    }
  ],
  "meshes": [
    {
      "name": "Cube.036_Cube.050-Mesh",
      "primitives": [
        {
          "attributes": {
            "POSITION": 0,
            "NORMAL": 1,
            "TEXCOORD_0": 2
          },
          "indices": 3,
          "material": 0,
          "mode": 4
        }
      ]
    }
  ],
  "nodes": [
    {
      "name": "Cube.036_Cube.050",
      "mesh": 0
    }
  ],
  "scene": 0,
  "scenes": [
    {
      "nodes": [
        0
      ]
    }
  ]
}
