{
  "accessors": [
    {
      "name": "glass_Mesh.003-Mesh_0_positions",
      "componentType": 5126,
      "count": 152,
      "min": [
        -1.894212007522583,
        -0.9832500219345093,
        -0.7825250029563904
      ],
      "max": [
        3.2391839027404785,
        0.31858599185943604,
        2.0710549354553223
      ],
      "type": "VEC3",
      "bufferView": 0,
      "byteOffset": 0
    },
    {
      "name": "glass_Mesh.003-Mesh_0_normals",
      "componentType": 5126,
      "count": 152,
      "min": [
        -0.9855822324752808,
        -0.9762799739837646,
        -0.9999997019767761
      ],
      "max": [
        0.9999889731407166,
        0.7668702602386475,
        0.9999997019767761
      ],
      "type": "VEC3",
      "bufferView": 1,
      "byteOffset": 0
    },
    {
      "name": "glass_Mesh.003-Mesh_0_texcoords",
      "componentType": 5126,
      "count": 152,
      "min": [
        0.007058999966830015,
        -0.3184730112552643
      ],
      "max": [
        1.5119249820709229,
        1.35794997215271
      ],
      "type": "VEC2",
      "bufferView": 2,
      "byteOffset": 0
    },
    {
      "name": "glass_Mesh.003-Mesh_0_indices",
      "componentType": 5123,
      "count": 630,
      "min": [
        0
      ],
      "max": [
        151
      ],
      "type": "SCALAR",
      "bufferView": 3,
      "byteOffset": 0
    }
  ],
  "asset": {
    "generator": "obj2gltf",
    "version": "2.0"
  },
  "buffers": [
    {
      "name": "spinner_windows",
      "byteLength": 6124,
      "uri": "data:application/octet-stream;base64,"
    }
  ],
  "bufferViews": [
    {
      "name": "bufferView_0",
      "buffer": 0,
      "byteLength": 1824,
      "byteOffset": 0,
      "byteStride": 12,
      "target": 34962
    },
    {
      "name": "bufferView_1",
      "buffer": 0,
      "byteLength": 1824,
      "byteOffset": 1824,
      "byteStride": 12,
      "target": 34962
    },
    {
      "name": "bufferView_2",
      "buffer": 0,
      "byteLength": 1216,
      "byteOffset": 3648,
      "byteStride": 8,
      "target": 34962
    },
    {
      "name": "bufferView_3",
      "buffer": 0,
      "byteLength": 1260,
      "byteOffset": 4864,
      "target": 34963
    }
  ],
  "materials": [
    {
      "name": "default",
      "pbrMetallicRoughness": {
        "baseColorFactor": [
          0.5,
          0.5,
          0.5,
          1
        ],
        "metallicFactor": 0,
        "roughnessFactor": 1
      },
      "emissiveFactor": [
        0,
        0,
        0
      ],
      "alphaMode": "OPAQUE",
      "doubleSided": false
    }
  ],
  "meshes": [
    {
      "name": "glass_Mesh.003-Mesh",
      "primitives": [
        {
          "attributes": {
            "POSITION": 0,
            "NORMAL": 1,
            "TEXCOORD_0": 2
          },
          "indices": 3,
          "material": 0,
          "mode": 4
        }
      ]
    }
  ],
  "nodes": [
    {
      "name": "glass_Mesh.003",
      "mesh": 0
    }
  ],
  "scene": 0,
  "scenes": [
    {
      "nodes": [
        0
      ]
    }
  ]
}
