{
  "accessors": [
    {
      "name": "car_Mesh.004-Mesh_0_positions",
      "componentType": 5126,
      "count": 5514,
      "min": [
        -1.894690990447998,
        -1.1558350324630737,
        -0.7787889838218689
      ],
      "max": [
        3.223418951034546,
        0.30970901250839233,
        2.0569310188293457
      ],
      "type": "VEC3",
      "bufferView": 0,
      "byteOffset": 0
    },
    {
      "name": "car_Mesh.004-Mesh_0_normals",
      "componentType": 5126,
      "count": 5514,
      "min": [
        -1,
        -1,
        -1
      ],
      "max": [
        1,
        1,
        1
      ],
      "type": "VEC3",
      "bufferView": 1,
      "byteOffset": 0
    },
    {
      "name": "car_Mesh.004-Mesh_0_texcoords",
      "componentType": 5126,
      "count": 5514,
      "min": [
        0.0014750000555068254,
        0.0027860000263899565
      ],
      "max": [
        0.9977419972419739,
        0.9983810186386108
      ],
      "type": "VEC2",
      "bufferView": 2,
      "byteOffset": 0
    },
    {
      "name": "car_Mesh.004-Mesh_0_indices",
      "componentType": 5123,
      "count": 20709,
      "min": [
        0
      ],
      "max": [
        5513
      ],
      "type": "SCALAR",
      "bufferView": 3,
      "byteOffset": 0
    },
    {
      "name": "car_Mesh.004-Mesh_1_positions",
      "componentType": 5126,
      "count": 7319,
      "min": [
        -2.968975067138672,
        -1.3180580139160156,
        -1.0574350357055664
      ],
      "max": [
        3.9692490100860596,
        0.7725830078125,
        2.3355770111083984
      ],
      "type": "VEC3",
      "bufferView": 0,
      "byteOffset": 66168
    },
    {
      "name": "car_Mesh.004-Mesh_1_normals",
      "componentType": 5126,
      "count": 7319,
      "min": [
        -1,
        -1,
        -1
      ],
      "max": [
        1,
        1,
        1
      ],
      "type": "VEC3",
      "bufferView": 1,
      "byteOffset": 66168
    },
    {
      "name": "car_Mesh.004-Mesh_1_texcoords",
      "componentType": 5126,
      "count": 7319,
      "min": [
        0.0007040000054985285,
        0.0021699999924749136
      ],
      "max": [
        0.9989550113677979,
        1.0956419706344604
      ],
      "type": "VEC2",
      "bufferView": 2,
      "byteOffset": 44112
    },
    {
      "name": "car_Mesh.004-Mesh_1_indices",
      "componentType": 5123,
      "count": 29208,
      "min": [
        0
      ],
      "max": [
        7318
      ],
      "type": "SCALAR",
      "bufferView": 3,
      "byteOffset": 41420
    }
  ],
  "asset": {
    "generator": "obj2gltf",
    "version": "2.0"
  },
  "buffers": [
    {
      "name": "spinner",
      "byteLength": 510492,
      "uri": "data:application/octet-stream;base64,"
    }
  ],
  "bufferViews": [
    {
      "name": "bufferView_0",
      "buffer": 0,
      "byteLength": 153996,
      "byteOffset": 0,
      "byteStride": 12,
      "target": 34962
    },
    {
      "name": "bufferView_1",
      "buffer": 0,
      "byteLength": 153996,
      "byteOffset": 153996,
      "byteStride": 12,
      "target": 34962
    },
    {
      "name": "bufferView_2",
      "buffer": 0,
      "byteLength": 102664,
      "byteOffset": 307992,
      "byteStride": 8,
      "target": 34962
    },
    {
      "name": "bufferView_3",
      "buffer": 0,
      "byteLength": 99836,
      "byteOffset": 410656,
      "target": 34963
    }
  ],
  "materials": [
    {
      "name": "interior",
      "pbrMetallicRoughness": {
        "baseColorFactor": [
          0.5,
          0.5,
          0.5,
          1
        ],
        "metallicFactor": 0,
        "roughnessFactor": 1
      },
      "emissiveFactor": [
        0,
        0,
        0
      ],
      "alphaMode": "OPAQUE",
      "doubleSided": false
    },
    {
      "name": "car",
      "pbrMetallicRoughness": {
        "baseColorFactor": [
          0.5,
          0.5,
          0.5,
          1
        ],
        "metallicFactor": 0,
        "roughnessFactor": 1
      },
      "emissiveFactor": [
        0,
        0,
        0
      ],
      "alphaMode": "OPAQUE",
      "doubleSided": false
    }
  ],
  "meshes": [
    {
      "name": "car_Mesh.004-Mesh",
      "primitives": [
        {
          "attributes": {
            "POSITION": 0,
            "NORMAL": 1,
            "TEXCOORD_0": 2
          },
          "indices": 3,
          "material": 0,
          "mode": 4
        },
        {
          "attributes": {
            "POSITION": 4,
            "NORMAL": 5,
            "TEXCOORD_0": 6
          },
          "indices": 7,
          "material": 1,
          "mode": 4
        }
      ]
    }
  ],
  "nodes": [
    {
      "name": "car_Mesh.004",
      "mesh": 0
    }
  ],
  "scene": 0,
  "scenes": [
    {
      "nodes": [
        0
      ]
    }
  ]
}
