{
  "accessors": [
    {
      "name": "Cube.026-Mesh_0_positions",
      "componentType": 5126,
      "count": 3716,
      "min": [
        -152.10792541503906,
        -1.456536054611206,
        -152.02267456054688
      ],
      "max": [
        152.7522430419922,
        113.79312133789062,
        152.83749389648438
      ],
      "type": "VEC3",
      "bufferView": 0,
      "byteOffset": 0
    },
    {
      "name": "Cube.026-Mesh_0_normals",
      "componentType": 5126,
      "count": 3716,
      "min": [
        -1,
        -1,
        -1
      ],
      "max": [
        1,
        1,
        1
      ],
      "type": "VEC3",
      "bufferView": 1,
      "byteOffset": 0
    },
    {
      "name": "Cube.026-Mesh_0_texcoords",
      "componentType": 5126,
      "count": 3716,
      "min": [
        -0.009025000035762787,
        -0.5227299928665161
      ],
      "max": [
        1,
        1.5227299928665161
      ],
      "type": "VEC2",
      "bufferView": 2,
      "byteOffset": 0
    },
    {
      "name": "Cube.026-Mesh_0_indices",
      "componentType": 5123,
      "count": 6156,
      "min": [
        0
      ],
      "max": [
        3715
      ],
      "type": "SCALAR",
      "bufferView": 3,
      "byteOffset": 0
    }
  ],
  "asset": {
    "generator": "obj2gltf",
    "version": "2.0"
  },
  "buffers": [
    {
      "name": "storefronts",
      "byteLength": 131224,
      "uri": "data:application/octet-stream;base64,"
    }
  ],
  "bufferViews": [
    {
      "name": "bufferView_0",
      "buffer": 0,
      "byteLength": 44592,
      "byteOffset": 0,
      "byteStride": 12,
      "target": 34962
    },
    {
      "name": "bufferView_1",
      "buffer": 0,
      "byteLength": 44592,
      "byteOffset": 44592,
      "byteStride": 12,
      "target": 34962
    },
    {
      "name": "bufferView_2",
      "buffer": 0,
      "byteLength": 29728,
      "byteOffset": 89184,
      "byteStride": 8,
      "target": 34962
    },
    {
      "name": "bufferView_3",
      "buffer": 0,
      "byteLength": 12312,
      "byteOffset": 118912,
      "target": 34963
    }
  ],
  "materials": [
    {
      "name": "storefronts",
      "pbrMetallicRoughness": {
        "baseColorFactor": [
          0.5,
          0.5,
          0.5,
          1
        ],
        "metallicFactor": 0,
        "roughnessFactor": 1
      },
      "emissiveFactor": [
        0,
        0,
        0
      ],
      "alphaMode": "OPAQUE",
      "doubleSided": false
    }
  ],
  "meshes": [
    {
      "name": "Cube.026-Mesh",
      "primitives": [
        {
          "attributes": {
            "POSITION": 0,
            "NORMAL": 1,
            "TEXCOORD_0": 2
          },
          "indices": 3,
          "material": 0,
          "mode": 4
        }
      ]
    }
  ],
  "nodes": [
    {
      "name": "Cube.026",
      "mesh": 0
    }
  ],
  "scene": 0,
  "scenes": [
    {
      "nodes": [
        0
      ]
    }
  ]
}
