{
  "accessors": [
    {
      "name": "Body.001_Body.baked.001-Mesh_0_positions",
      "componentType": 5126,
      "count": 1261,
      "min": [
        -15.463011741638184,
        -0.03384200111031532,
        -7.529046058654785
      ],
      "max": [
        9.52780532836914,
        65.18226623535156,
        8.371891975402832
      ],
      "type": "VEC3",
      "bufferView": 0,
      "byteOffset": 0
    },
    {
      "name": "Body.001_Body.baked.001-Mesh_0_normals",
      "componentType": 5126,
      "count": 1261,
      "min": [
        -0.9997088313102722,
        -0.9981842041015625,
        -0.998803436756134
      ],
      "max": [
        0.9994447231292725,
        0.997527003288269,
        0.9994503855705261
      ],
      "type": "VEC3",
      "bufferView": 1,
      "byteOffset": 0
    },
    {
      "name": "Body.001_Body.baked.001-Mesh_0_texcoords",
      "componentType": 5126,
      "count": 1261,
      "min": [
        0.006812000181525946,
        0
      ],
      "max": [
        0.48626598715782166,
        1
      ],
      "type": "VEC2",
      "bufferView": 2,
      "byteOffset": 0
    },
    {
      "name": "Body.001_Body.baked.001-Mesh_0_indices",
      "componentType": 5123,
      "count": 2994,
      "min": [
        0
      ],
      "max": [
        1260
      ],
      "type": "SCALAR",
      "bufferView": 3,
      "byteOffset": 0
    }
  ],
  "asset": {
    "generator": "obj2gltf",
    "version": "2.0"
  },
  "buffers": [
    {
      "name": "topper_01",
      "byteLength": 46340,
      "uri": "data:application/octet-stream;base64,"
    }
  ],
  "bufferViews": [
    {
      "name": "bufferView_0",
      "buffer": 0,
      "byteLength": 15132,
      "byteOffset": 0,
      "byteStride": 12,
      "target": 34962
    },
    {
      "name": "bufferView_1",
      "buffer": 0,
      "byteLength": 15132,
      "byteOffset": 15132,
      "byteStride": 12,
      "target": 34962
    },
    {
      "name": "bufferView_2",
      "buffer": 0,
      "byteLength": 10088,
      "byteOffset": 30264,
      "byteStride": 8,
      "target": 34962
    },
    {
      "name": "bufferView_3",
      "buffer": 0,
      "byteLength": 5988,
      "byteOffset": 40352,
      "target": 34963
    }
  ],
  "materials": [
    {
      "name": "default",
      "pbrMetallicRoughness": {
        "baseColorFactor": [
          0.5,
          0.5,
          0.5,
          1
        ],
        "metallicFactor": 0,
        "roughnessFactor": 1
      },
      "emissiveFactor": [
        0,
        0,
        0
      ],
      "alphaMode": "OPAQUE",
      "doubleSided": false
    }
  ],
  "meshes": [
    {
      "name": "Body.001_Body.baked.001-Mesh",
      "primitives": [
        {
          "attributes": {
            "POSITION": 0,
            "NORMAL": 1,
            "TEXCOORD_0": 2
          },
          "indices": 3,
          "material": 0,
          "mode": 4
        }
      ]
    }
  ],
  "nodes": [
    {
      "name": "Body.001_Body.baked.001",
      "mesh": 0
    }
  ],
  "scene": 0,
  "scenes": [
    {
      "nodes": [
        0
      ]
    }
  ]
}
