{
  "accessors": [
    {
      "name": "Torus-Mesh_0_positions",
      "componentType": 5126,
      "count": 72,
      "min": [
        -14.696292877197266,
        10.528863906860352,
        -2.545473098754883
      ],
      "max": [
        14.696292877197266,
        35.98359680175781,
        2.545473098754883
      ],
      "type": "VEC3",
      "bufferView": 0,
      "byteOffset": 0
    },
    {
      "name": "Torus-Mesh_0_normals",
      "componentType": 5126,
      "count": 72,
      "min": [
        -0.866019070148468,
        -1,
        -0.8320709466934204
      ],
      "max": [
        0.866019070148468,
        1,
        0.8320657014846802
      ],
      "type": "VEC3",
      "bufferView": 1,
      "byteOffset": 0
    },
    {
      "name": "Torus-Mesh_0_texcoords",
      "componentType": 5126,
      "count": 72,
      "min": [
        0,
        0
      ],
      "max": [
        0.5,
        1
      ],
      "type": "VEC2",
      "bufferView": 2,
      "byteOffset": 0
    },
    {
      "name": "Torus-Mesh_0_indices",
      "componentType": 5123,
      "count": 108,
      "min": [
        0
      ],
      "max": [
        71
      ],
      "type": "SCALAR",
      "bufferView": 3,
      "byteOffset": 0
    }
  ],
  "asset": {
    "generator": "obj2gltf",
    "version": "2.0"
  },
  "buffers": [
    {
      "name": "topper_09",
      "byteLength": 2520,
      "uri": "data:application/octet-stream;base64,"
    }
  ],
  "bufferViews": [
    {
      "name": "bufferView_0",
      "buffer": 0,
      "byteLength": 864,
      "byteOffset": 0,
      "byteStride": 12,
      "target": 34962
    },
    {
      "name": "bufferView_1",
      "buffer": 0,
      "byteLength": 864,
      "byteOffset": 864,
      "byteStride": 12,
      "target": 34962
    },
    {
      "name": "bufferView_2",
      "buffer": 0,
      "byteLength": 576,
      "byteOffset": 1728,
      "byteStride": 8,
      "target": 34962
    },
    {
      "name": "bufferView_3",
      "buffer": 0,
      "byteLength": 216,
      "byteOffset": 2304,
      "target": 34963
    }
  ],
  "materials": [
    {
      "name": "ads_large",
      "pbrMetallicRoughness": {
        "baseColorFactor": [
          0.5,
          0.5,
          0.5,
          1
        ],
        "metallicFactor": 0,
        "roughnessFactor": 1
      },
      "emissiveFactor": [
        0,
        0,
        0
      ],
      "alphaMode": "OPAQUE",
      "doubleSided": false
    }
  ],
  "meshes": [
    {
      "name": "Torus-Mesh",
      "primitives": [
        {
          "attributes": {
            "POSITION": 0,
            "NORMAL": 1,
            "TEXCOORD_0": 2
          },
          "indices": 3,
          "material": 0,
          "mode": 4
        }
      ]
    }
  ],
  "nodes": [
    {
      "name": "Torus",
      "mesh": 0
    }
  ],
  "scene": 0,
  "scenes": [
    {
      "nodes": [
        0
      ]
    }
  ]
}
