{
  "accessors": [
    {
      "name": "Suzanne-Mesh_0_positions",
      "componentType": 5126,
      "count": 1966,
      "min": [
        -22.37973403930664,
        -0.05718399956822395,
        -15.869171142578125
      ],
      "max": [
        22.37973403930664,
        28.816852569580078,
        14.892132759094238
      ],
      "type": "VEC3",
      "bufferView": 0,
      "byteOffset": 0
    },
    {
      "name": "Suzanne-Mesh_0_normals",
      "componentType": 5126,
      "count": 1966,
      "min": [
        -1,
        -0.9923093914985657,
        -0.9725686311721802
      ],
      "max": [
        1,
        0.9923919439315796,
        0.9988746047019958
      ],
      "type": "VEC3",
      "bufferView": 1,
      "byteOffset": 0
    },
    {
      "name": "Suzanne-Mesh_0_texcoords",
      "componentType": 5126,
      "count": 1966,
      "min": [
        0,
        0.1599999964237213
      ],
      "max": [
        0.5,
        0.857142984867096
      ],
      "type": "VEC2",
      "bufferView": 2,
      "byteOffset": 0
    },
    {
      "name": "Suzanne-Mesh_0_indices",
      "componentType": 5123,
      "count": 2904,
      "min": [
        0
      ],
      "max": [
        1965
      ],
      "type": "SCALAR",
      "bufferView": 3,
      "byteOffset": 0
    }
  ],
  "asset": {
    "generator": "obj2gltf",
    "version": "2.0"
  },
  "buffers": [
    {
      "name": "topper_07",
      "byteLength": 68720,
      "uri": "data:application/octet-stream;base64,"
    }
  ],
  "bufferViews": [
    {
      "name": "bufferView_0",
      "buffer": 0,
      "byteLength": 23592,
      "byteOffset": 0,
      "byteStride": 12,
      "target": 34962
    },
    {
      "name": "bufferView_1",
      "buffer": 0,
      "byteLength": 23592,
      "byteOffset": 23592,
      "byteStride": 12,
      "target": 34962
    },
    {
      "name": "bufferView_2",
      "buffer": 0,
      "byteLength": 15728,
      "byteOffset": 47184,
      "byteStride": 8,
      "target": 34962
    },
    {
      "name": "bufferView_3",
      "buffer": 0,
      "byteLength": 5808,
      "byteOffset": 62912,
      "target": 34963
    }
  ],
  "materials": [
    {
      "name": "ads_large",
      "pbrMetallicRoughness": {
        "baseColorFactor": [
          0.5,
          0.5,
          0.5,
          1
        ],
        "metallicFactor": 0,
        "roughnessFactor": 1
      },
      "emissiveFactor": [
        0,
        0,
        0
      ],
      "alphaMode": "OPAQUE",
      "doubleSided": false
    }
  ],
  "meshes": [
    {
      "name": "Suzanne-Mesh",
      "primitives": [
        {
          "attributes": {
            "POSITION": 0,
            "NORMAL": 1,
            "TEXCOORD_0": 2
          },
          "indices": 3,
          "material": 0,
          "mode": 4
        }
      ]
    }
  ],
  "nodes": [
    {
      "name": "Suzanne",
      "mesh": 0
    }
  ],
  "scene": 0,
  "scenes": [
    {
      "nodes": [
        0
      ]
    }
  ]
}
