{
  "accessors": [
    {
      "name": "Icosphere_Icosphere.001-Mesh_0_positions",
      "componentType": 5126,
      "count": 60,
      "min": [
        -10.084742546081543,
        4.528866767883301,
        -9.59106159210205
      ],
      "max": [
        10.084742546081543,
        27.079090118408203,
        9.59106159210205
      ],
      "type": "VEC3",
      "bufferView": 0,
      "byteOffset": 0
    },
    {
      "name": "Icosphere_Icosphere.001-Mesh_0_normals",
      "componentType": 5126,
      "count": 60,
      "min": [
        -0.9822438955307007,
        -0.7946866750717163,
        -0.9341833591461182
      ],
      "max": [
        0.9822438955307007,
        0.7946866750717163,
        0.9341833591461182
      ],
      "type": "VEC3",
      "bufferView": 1,
      "byteOffset": 0
    },
    {
      "name": "Icosphere_Icosphere.001-Mesh_0_texcoords",
      "componentType": 5126,
      "count": 60,
      "min": [
        0.5138090252876282,
        0.0061690001748502254
      ],
      "max": [
        0.9861909747123718,
        0.9980109930038452
      ],
      "type": "VEC2",
      "bufferView": 2,
      "byteOffset": 0
    },
    {
      "name": "Icosphere_Icosphere.001-Mesh_0_indices",
      "componentType": 5123,
      "count": 60,
      "min": [
        0
      ],
      "max": [
        59
      ],
      "type": "SCALAR",
      "bufferView": 3,
      "byteOffset": 0
    }
  ],
  "asset": {
    "generator": "obj2gltf",
    "version": "2.0"
  },
  "buffers": [
    {
      "name": "topper_08",
      "byteLength": 2040,
      "uri": "data:application/octet-stream;base64,"
    }
  ],
  "bufferViews": [
    {
      "name": "bufferView_0",
      "buffer": 0,
      "byteLength": 720,
      "byteOffset": 0,
      "byteStride": 12,
      "target": 34962
    },
    {
      "name": "bufferView_1",
      "buffer": 0,
      "byteLength": 720,
      "byteOffset": 720,
      "byteStride": 12,
      "target": 34962
    },
    {
      "name": "bufferView_2",
      "buffer": 0,
      "byteLength": 480,
      "byteOffset": 1440,
      "byteStride": 8,
      "target": 34962
    },
    {
      "name": "bufferView_3",
      "buffer": 0,
      "byteLength": 120,
      "byteOffset": 1920,
      "target": 34963
    }
  ],
  "materials": [
    {
      "name": "ads_large",
      "pbrMetallicRoughness": {
        "baseColorFactor": [
          0.5,
          0.5,
          0.5,
          1
        ],
        "metallicFactor": 0,
        "roughnessFactor": 1
      },
      "emissiveFactor": [
        0,
        0,
        0
      ],
      "alphaMode": "OPAQUE",
      "doubleSided": false
    }
  ],
  "meshes": [
    {
      "name": "Icosphere_Icosphere.001-Mesh",
      "primitives": [
        {
          "attributes": {
            "POSITION": 0,
            "NORMAL": 1,
            "TEXCOORD_0": 2
          },
          "indices": 3,
          "material": 0,
          "mode": 4
        }
      ]
    }
  ],
  "nodes": [
    {
      "name": "Icosphere_Icosphere.001",
      "mesh": 0
    }
  ],
  "scene": 0,
  "scenes": [
    {
      "nodes": [
        0
      ]
    }
  ]
}
